ffmpeg started on 2026-01-20 at 13:56:17
Report written to "D:\Convert\FFMetrics\reports\psnr_report-6.txt"
Log level: 32
Command line:
ffmpeg -hide_banner -nostdin -r 24000/1001 -i "F:\\Convert\\files\\[DC] Make Heroine ga Oosugiru - 07_Telegram_HEVC(202).mkv" -r 24000/1001 -i "F:\\Convert\\files\\[DC] Make Heroine ga Oosugiru - 07_Telegram.mp4" -lavfi "[0:v]settb=AVTB,setpts=PTS-STARTPTS,format=pix_fmts=yuv420p10le,fps=24000/1001,scale=1920:1080:flags=lanczos:param0=3:out_range=limited:out_color_matrix=bt709:out_chroma_loc=left,setsar=1/1,setdar=(1920/1080)*(1/1),colorspace=format=yuv420p10:range=tv:primaries=bt709:trc=bt709:space=bt709:fast=0[main];[1:v]settb=AVTB,setpts=PTS-STARTPTS,format=pix_fmts=yuv420p,fps=24000/1001,scale=1920:1080:flags=lanczos:param0=3:out_range=limited:out_color_matrix=bt709:out_chroma_loc=left,setsar=1.000,setdar=1.778,colorspace=format=yuv420p:range=tv:primaries=bt709:trc=bt709:space=bt709:fast=0[ref];[main][ref]psnr=eof_action=endall:stats_file='D\\:/Convert/FFMetrics/logs/psnr_logfile-6.txt'" -f null -
Input #0, matroska,webm, from 'F:\Convert\files\[DC] Make Heroine ga Oosugiru - 07_Telegram_HEVC(202).mkv':
  Metadata:
    COMPATIBLE_BRANDS: isomiso2avc1mp41
    MAJOR_BRAND     : isom
    MINOR_VERSION   : 512
    ENCODER         : Lavf61.7.100
  Duration: 00:24:06.79, start: -0.021000, bitrate: 968 kb/s
  Stream #0:0: Video: hevc (Main 10), yuv420p10le(tv, bt709, progressive), 1920x1080 [SAR 1:1 DAR 16:9], 23.98 fps, 23.98 tbr, 1k tbn (default)
      Metadata:
        HANDLER_NAME    : VideoHandler
        VENDOR_ID       : [0][0][0][0]
        ENCODER         : Lavc61.19.100 libx265
        BPS             : 771744
        DURATION        : 00:24:06.569708333
        NUMBER_OF_FRAMES: 34683
        NUMBER_OF_BYTES : 139547668
        _STATISTICS_WRITING_APP: mkvpropedit v94.0 ('Initiate') 64-bit
        _STATISTICS_WRITING_DATE_UTC: 2026-01-20 07:01:00
        _STATISTICS_TAGS: BPS DURATION NUMBER_OF_FRAMES NUMBER_OF_BYTES
  Stream #0:1: Audio: aac (LC), 48000 Hz, stereo, fltp (default)
      Metadata:
        HANDLER_NAME    : SoundHandler
        VENDOR_ID       : [0][0][0][0]
        ENCODER         : Lavc61.19.100 aac
        BPS             : 193194
        DURATION        : 00:24:06.784000000
        NUMBER_OF_FRAMES: 67819
        NUMBER_OF_BYTES : 34938755
        _STATISTICS_WRITING_APP: mkvpropedit v94.0 ('Initiate') 64-bit
        _STATISTICS_WRITING_DATE_UTC: 2026-01-20 07:01:00
        _STATISTICS_TAGS: BPS DURATION NUMBER_OF_FRAMES NUMBER_OF_BYTES
Input #1, mov,mp4,m4a,3gp,3g2,mj2, from 'F:\Convert\files\[DC] Make Heroine ga Oosugiru - 07_Telegram.mp4':
  Metadata:
    major_brand     : isom
    minor_version   : 512
    compatible_brands: isomiso2avc1mp41
    encoder         : Lavf60.16.100
  Duration: 00:24:06.74, start: 0.000000, bitrate: 3764 kb/s
  Stream #1:0[0x1](und): Video: h264 (High) (avc1 / 0x31637661), yuv420p(tv, bt709, progressive), 1920x1080 [SAR 1:1 DAR 16:9], 3616 kb/s, 23.98 fps, 23.98 tbr, 24k tbn (default)
      Metadata:
        handler_name    : VideoHandler
        vendor_id       : [0][0][0][0]
        encoder         : Lavc60.31.102 h264_qsv
  Stream #1:1[0x2](und): Audio: aac (HE-AACv2) (mp4a / 0x6134706D), 48000 Hz, stereo, fltp, 144 kb/s (default)
      Metadata:
        handler_name    : SoundHandler
        vendor_id       : [0][0][0][0]
Stream mapping:
  Stream #0:0 (hevc) -> settb:default
  Stream #1:0 (h264) -> settb:default
  psnr:default -> Stream #0:0 (wrapped_avframe)
  Stream #0:1 -> #0:1 (aac (native) -> pcm_s16le (native))
Output #0, null, to 'pipe:':
  Metadata:
    COMPATIBLE_BRANDS: isomiso2avc1mp41
    MAJOR_BRAND     : isom
    MINOR_VERSION   : 512
    encoder         : Lavf61.7.100
  Stream #0:0: Video: wrapped_avframe, yuv420p10le(tv, bt709, progressive), 1920x1080 [SAR 1:1 DAR 16:9], q=2-31, 200 kb/s, 23.98 fps, 23.98 tbn
      Metadata:
        encoder         : Lavc61.19.100 wrapped_avframe
  Stream #0:1: Audio: pcm_s16le, 48000 Hz, stereo, s16, 1536 kb/s (default)
      Metadata:
        HANDLER_NAME    : SoundHandler
        VENDOR_ID       : [0][0][0][0]
        _STATISTICS_TAGS: BPS DURATION NUMBER_OF_FRAMES NUMBER_OF_BYTES
        BPS             : 193194
        DURATION        : 00:24:06.784000000
        NUMBER_OF_FRAMES: 67819
        NUMBER_OF_BYTES : 34938755
        _STATISTICS_WRITING_APP: mkvpropedit v94.0 ('Initiate') 64-bit
        _STATISTICS_WRITING_DATE_UTC: 2026-01-20 07:01:00
        encoder         : Lavc61.19.100 pcm_s16le
frame=  124 fps=0.0 q=-0.0 size=N/A time=00:00:05.17 bitrate=N/A speed=9.84x    frame=  323 fps=307 q=-0.0 size=N/A time=00:00:13.47 bitrate=N/A speed=12.8x    frame=  511 fps=327 q=-0.0 size=N/A time=00:00:21.31 bitrate=N/A speed=13.6x    frame=  699 fps=335 q=-0.0 size=N/A time=00:00:29.15 bitrate=N/A speed=  14x    frame=  880 fps=339 q=-0.0 size=N/A time=00:00:36.70 bitrate=N/A speed=14.1x    frame= 1011 fps=325 q=-0.0 size=N/A time=00:00:42.16 bitrate=N/A speed=13.6x    frame= 1164 fps=321 q=-0.0 size=N/A time=00:00:48.54 bitrate=N/A speed=13.4x    frame= 1322 fps=319 q=-0.0 size=N/A time=00:00:55.13 bitrate=N/A speed=13.3x    frame= 1472 fps=316 q=-0.0 size=N/A time=00:01:01.39 bitrate=N/A speed=13.2x    frame= 1610 fps=311 q=-0.0 size=N/A time=00:01:07.15 bitrate=N/A speed=  13x    frame= 1761 fps=309 q=-0.0 size=N/A time=00:01:13.44 bitrate=N/A speed=12.9x    frame= 1916 fps=309 q=-0.0 size=N/A time=00:01:19.91 bitrate=N/A speed=12.9x    frame= 2058 fps=307 q=-0.0 size=N/A time=00:01:25.83 bitrate=N/A speed=12.8x    frame= 2181 fps=301 q=-0.0 size=N/A time=00:01:30.96 bitrate=N/A speed=12.6x    frame= 2328 fps=300 q=-0.0 size=N/A time=00:01:37.09 bitrate=N/A speed=12.5x    frame= 2461 fps=298 q=-0.0 size=N/A time=00:01:42.64 bitrate=N/A speed=12.4x    frame= 2590 fps=295 q=-0.0 size=N/A time=00:01:48.02 bitrate=N/A speed=12.3x    frame= 2765 fps=297 q=-0.0 size=N/A time=00:01:55.32 bitrate=N/A speed=12.4x    frame= 2938 fps=299 q=-0.0 size=N/A time=00:02:02.53 bitrate=N/A speed=12.5x    frame= 3122 fps=302 q=-0.0 size=N/A time=00:02:10.21 bitrate=N/A speed=12.6x    frame= 3318 fps=306 q=-0.0 size=N/A time=00:02:18.38 bitrate=N/A speed=12.8x    frame= 3504 fps=308 q=-0.0 size=N/A time=00:02:26.14 bitrate=N/A speed=12.9x    frame= 3699 fps=311 q=-0.0 size=N/A time=00:02:34.27 bitrate=N/A speed=  13x    frame= 3888 fps=314 q=-0.0 size=N/A time=00:02:42.16 bitrate=N/A speed=13.1x    frame= 4070 fps=315 q=-0.0 size=N/A time=00:02:49.75 bitrate=N/A speed=13.2x    frame= 4261 fps=318 q=-0.0 size=N/A time=00:02:57.71 bitrate=N/A speed=13.2x    frame= 4451 fps=319 q=-0.0 size=N/A time=00:03:05.64 bitrate=N/A speed=13.3x    frame= 4637 fps=321 q=-0.0 size=N/A time=00:03:13.40 bitrate=N/A speed=13.4x    frame= 4822 fps=322 q=-0.0 size=N/A time=00:03:21.11 bitrate=N/A speed=13.4x    frame= 5020 fps=324 q=-0.0 size=N/A time=00:03:29.37 bitrate=N/A speed=13.5x    frame= 5206 fps=325 q=-0.0 size=N/A time=00:03:37.13 bitrate=N/A speed=13.6x    frame= 5388 fps=326 q=-0.0 size=N/A time=00:03:44.72 bitrate=N/A speed=13.6x    frame= 5590 fps=328 q=-0.0 size=N/A time=00:03:53.14 bitrate=N/A speed=13.7x    frame= 5776 fps=329 q=-0.0 size=N/A time=00:04:00.90 bitrate=N/A speed=13.7x    frame= 5962 fps=330 q=-0.0 size=N/A time=00:04:08.66 bitrate=N/A speed=13.8x    frame= 6147 fps=331 q=-0.0 size=N/A time=00:04:16.38 bitrate=N/A speed=13.8x    frame= 6339 fps=332 q=-0.0 size=N/A time=00:04:24.38 bitrate=N/A speed=13.8x    frame= 6524 fps=333 q=-0.0 size=N/A time=00:04:32.10 bitrate=N/A speed=13.9x    frame= 6709 fps=333 q=-0.0 size=N/A time=00:04:39.82 bitrate=N/A speed=13.9x    frame= 6904 fps=334 q=-0.0 size=N/A time=00:04:47.95 bitrate=N/A speed=13.9x    frame= 7078 fps=335 q=-0.0 size=N/A time=00:04:55.21 bitrate=N/A speed=  14x    frame= 7259 fps=335 q=-0.0 size=N/A time=00:05:02.76 bitrate=N/A speed=  14x    frame= 7449 fps=336 q=-0.0 size=N/A time=00:05:10.68 bitrate=N/A speed=  14x    frame= 7625 fps=336 q=-0.0 size=N/A time=00:05:18.02 bitrate=N/A speed=  14x    frame= 7815 fps=336 q=-0.0 size=N/A time=00:05:25.95 bitrate=N/A speed=  14x    frame= 8007 fps=337 q=-0.0 size=N/A time=00:05:33.95 bitrate=N/A speed=14.1x    frame= 8187 fps=337 q=-0.0 size=N/A time=00:05:41.46 bitrate=N/A speed=14.1x    frame= 8373 fps=338 q=-0.0 size=N/A time=00:05:49.22 bitrate=N/A speed=14.1x    frame= 8554 fps=338 q=-0.0 size=N/A time=00:05:56.77 bitrate=N/A speed=14.1x    frame= 8739 fps=339 q=-0.0 size=N/A time=00:06:04.48 bitrate=N/A speed=14.1x    frame= 8932 fps=339 q=-0.0 size=N/A time=00:06:12.53 bitrate=N/A speed=14.1x    frame= 9112 fps=339 q=-0.0 size=N/A time=00:06:20.04 bitrate=N/A speed=14.2x    frame= 9305 fps=340 q=-0.0 size=N/A time=00:06:28.09 bitrate=N/A speed=14.2x    frame= 9490 fps=340 q=-0.0 size=N/A time=00:06:35.81 bitrate=N/A speed=14.2x    frame= 9680 fps=341 q=-0.0 size=N/A time=00:06:43.73 bitrate=N/A speed=14.2x    frame= 9870 fps=341 q=-0.0 size=N/A time=00:06:51.66 bitrate=N/A speed=14.2x    frame=10060 fps=342 q=-0.0 size=N/A time=00:06:59.58 bitrate=N/A speed=14.3x    frame=10241 fps=342 q=-0.0 size=N/A time=00:07:07.13 bitrate=N/A speed=14.3x    frame=10433 fps=342 q=-0.0 size=N/A time=00:07:15.14 bitrate=N/A speed=14.3x    frame=10613 fps=343 q=-0.0 size=N/A time=00:07:22.65 bitrate=N/A speed=14.3x    frame=10790 fps=343 q=-0.0 size=N/A time=00:07:30.03 bitrate=N/A speed=14.3x    frame=10976 fps=343 q=-0.0 size=N/A time=00:07:37.79 bitrate=N/A speed=14.3x    frame=11163 fps=343 q=-0.0 size=N/A time=00:07:45.59 bitrate=N/A speed=14.3x    frame=11342 fps=343 q=-0.0 size=N/A time=00:07:53.05 bitrate=N/A speed=14.3x    frame=11530 fps=344 q=-0.0 size=N/A time=00:08:00.89 bitrate=N/A speed=14.3x    frame=11725 fps=344 q=-0.0 size=N/A time=00:08:09.03 bitrate=N/A speed=14.4x    frame=11910 fps=344 q=-0.0 size=N/A time=00:08:16.74 bitrate=N/A speed=14.4x    frame=12100 fps=345 q=-0.0 size=N/A time=00:08:24.67 bitrate=N/A speed=14.4x    frame=12288 fps=345 q=-0.0 size=N/A time=00:08:32.51 bitrate=N/A speed=14.4x    frame=12482 fps=346 q=-0.0 size=N/A time=00:08:40.60 bitrate=N/A speed=14.4x    frame=12664 fps=346 q=-0.0 size=N/A time=00:08:48.19 bitrate=N/A speed=14.4x    frame=12862 fps=346 q=-0.0 size=N/A time=00:08:56.45 bitrate=N/A speed=14.4x    frame=13045 fps=346 q=-0.0 size=N/A time=00:09:04.08 bitrate=N/A speed=14.4x    frame=13235 fps=346 q=-0.0 size=N/A time=00:09:12.00 bitrate=N/A speed=14.5x    frame=13418 fps=347 q=-0.0 size=N/A time=00:09:19.64 bitrate=N/A speed=14.5x    frame=13601 fps=347 q=-0.0 size=N/A time=00:09:27.27 bitrate=N/A speed=14.5x    frame=13788 fps=347 q=-0.0 size=N/A time=00:09:35.07 bitrate=N/A speed=14.5x    frame=13975 fps=347 q=-0.0 size=N/A time=00:09:42.87 bitrate=N/A speed=14.5x    frame=14145 fps=347 q=-0.0 size=N/A time=00:09:49.96 bitrate=N/A speed=14.5x    frame=14328 fps=347 q=-0.0 size=N/A time=00:09:57.59 bitrate=N/A speed=14.5x    frame=14514 fps=347 q=-0.0 size=N/A time=00:10:05.35 bitrate=N/A speed=14.5x    frame=14700 fps=347 q=-0.0 size=N/A time=00:10:13.11 bitrate=N/A speed=14.5x    frame=14876 fps=347 q=-0.0 size=N/A time=00:10:20.45 bitrate=N/A speed=14.5x    frame=15060 fps=347 q=-0.0 size=N/A time=00:10:28.12 bitrate=N/A speed=14.5x    frame=15206 fps=347 q=-0.0 size=N/A time=00:10:34.21 bitrate=N/A speed=14.5x    frame=15387 fps=347 q=-0.0 size=N/A time=00:10:41.76 bitrate=N/A speed=14.5x    frame=15581 fps=347 q=-0.0 size=N/A time=00:10:49.85 bitrate=N/A speed=14.5x    frame=15756 fps=347 q=-0.0 size=N/A time=00:10:57.15 bitrate=N/A speed=14.5x    frame=15941 fps=347 q=-0.0 size=N/A time=00:11:04.87 bitrate=N/A speed=14.5x    frame=16135 fps=347 q=-0.0 size=N/A time=00:11:12.96 bitrate=N/A speed=14.5x    frame=16324 fps=348 q=-0.0 size=N/A time=00:11:20.84 bitrate=N/A speed=14.5x    frame=16502 fps=348 q=-0.0 size=N/A time=00:11:28.27 bitrate=N/A speed=14.5x    frame=16690 fps=348 q=-0.0 size=N/A time=00:11:36.11 bitrate=N/A speed=14.5x    frame=16876 fps=348 q=-0.0 size=N/A time=00:11:43.86 bitrate=N/A speed=14.5x    frame=17058 fps=348 q=-0.0 size=N/A time=00:11:51.46 bitrate=N/A speed=14.5x    frame=17253 fps=348 q=-0.0 size=N/A time=00:11:59.59 bitrate=N/A speed=14.5x    frame=17437 fps=348 q=-0.0 size=N/A time=00:12:07.26 bitrate=N/A speed=14.5x    frame=17620 fps=349 q=-0.0 size=N/A time=00:12:14.90 bitrate=N/A speed=14.5x    frame=17810 fps=349 q=-0.0 size=N/A time=00:12:22.82 bitrate=N/A speed=14.5x    frame=17999 fps=349 q=-0.0 size=N/A time=00:12:30.70 bitrate=N/A speed=14.6x    frame=18180 fps=349 q=-0.0 size=N/A time=00:12:38.25 bitrate=N/A speed=14.6x    frame=18358 fps=349 q=-0.0 size=N/A time=00:12:45.68 bitrate=N/A speed=14.5x    frame=18541 fps=349 q=-0.0 size=N/A time=00:12:53.31 bitrate=N/A speed=14.6x    frame=18728 fps=349 q=-0.0 size=N/A time=00:13:01.11 bitrate=N/A speed=14.6x    frame=18916 fps=349 q=-0.0 size=N/A time=00:13:08.95 bitrate=N/A speed=14.6x    frame=19104 fps=349 q=-0.0 size=N/A time=00:13:16.79 bitrate=N/A speed=14.6x    frame=19292 fps=349 q=-0.0 size=N/A time=00:13:24.63 bitrate=N/A speed=14.6x    frame=19476 fps=350 q=-0.0 size=N/A time=00:13:32.31 bitrate=N/A speed=14.6x    frame=19671 fps=350 q=-0.0 size=N/A time=00:13:40.44 bitrate=N/A speed=14.6x    frame=19861 fps=350 q=-0.0 size=N/A time=00:13:48.36 bitrate=N/A speed=14.6x    frame=20047 fps=350 q=-0.0 size=N/A time=00:13:56.12 bitrate=N/A speed=14.6x    frame=20241 fps=350 q=-0.0 size=N/A time=00:14:04.21 bitrate=N/A speed=14.6x    frame=20425 fps=350 q=-0.0 size=N/A time=00:14:11.89 bitrate=N/A speed=14.6x    frame=20593 fps=350 q=-0.0 size=N/A time=00:14:18.89 bitrate=N/A speed=14.6x    frame=20776 fps=350 q=-0.0 size=N/A time=00:14:26.53 bitrate=N/A speed=14.6x    frame=20962 fps=350 q=-0.0 size=N/A time=00:14:34.29 bitrate=N/A speed=14.6x    frame=21153 fps=350 q=-0.0 size=N/A time=00:14:42.25 bitrate=N/A speed=14.6x    frame=21334 fps=350 q=-0.0 size=N/A time=00:14:49.80 bitrate=N/A speed=14.6x    frame=21527 fps=351 q=-0.0 size=N/A time=00:14:57.85 bitrate=N/A speed=14.6x    frame=21716 fps=351 q=-0.0 size=N/A time=00:15:05.73 bitrate=N/A speed=14.6x    frame=21907 fps=351 q=-0.0 size=N/A time=00:15:13.70 bitrate=N/A speed=14.6x    frame=22099 fps=351 q=-0.0 size=N/A time=00:15:21.71 bitrate=N/A speed=14.6x    frame=22292 fps=351 q=-0.0 size=N/A time=00:15:29.76 bitrate=N/A speed=14.7x    frame=22478 fps=351 q=-0.0 size=N/A time=00:15:37.51 bitrate=N/A speed=14.7x    frame=22661 fps=351 q=-0.0 size=N/A time=00:15:45.15 bitrate=N/A speed=14.7x    frame=22849 fps=352 q=-0.0 size=N/A time=00:15:52.99 bitrate=N/A speed=14.7x    frame=23035 fps=352 q=-0.0 size=N/A time=00:16:00.75 bitrate=N/A speed=14.7x    frame=23232 fps=352 q=-0.0 size=N/A time=00:16:08.96 bitrate=N/A speed=14.7x    frame=23425 fps=352 q=-0.0 size=N/A time=00:16:17.01 bitrate=N/A speed=14.7x    frame=23621 fps=352 q=-0.0 size=N/A time=00:16:25.19 bitrate=N/A speed=14.7x    frame=23814 fps=352 q=-0.0 size=N/A time=00:16:33.24 bitrate=N/A speed=14.7x    frame=24017 fps=353 q=-0.0 size=N/A time=00:16:41.70 bitrate=N/A speed=14.7x    frame=24203 fps=353 q=-0.0 size=N/A time=00:16:49.46 bitrate=N/A speed=14.7x    frame=24384 fps=353 q=-0.0 size=N/A time=00:16:57.01 bitrate=N/A speed=14.7x    frame=24579 fps=353 q=-0.0 size=N/A time=00:17:05.14 bitrate=N/A speed=14.7x    frame=24762 fps=353 q=-0.0 size=N/A time=00:17:12.78 bitrate=N/A speed=14.7x    frame=24945 fps=353 q=-0.0 size=N/A time=00:17:20.41 bitrate=N/A speed=14.7x    frame=25126 fps=353 q=-0.0 size=N/A time=00:17:27.96 bitrate=N/A speed=14.7x    frame=25309 fps=353 q=-0.0 size=N/A time=00:17:35.59 bitrate=N/A speed=14.7x    frame=25498 fps=353 q=-0.0 size=N/A time=00:17:43.47 bitrate=N/A speed=14.7x    frame=25689 fps=353 q=-0.0 size=N/A time=00:17:51.44 bitrate=N/A speed=14.7x    frame=25852 fps=353 q=-0.0 size=N/A time=00:17:58.24 bitrate=N/A speed=14.7x    frame=26012 fps=353 q=-0.0 size=N/A time=00:18:04.91 bitrate=N/A speed=14.7x    frame=26163 fps=352 q=-0.0 size=N/A time=00:18:11.21 bitrate=N/A speed=14.7x    frame=26335 fps=352 q=-0.0 size=N/A time=00:18:18.38 bitrate=N/A speed=14.7x    frame=26521 fps=352 q=-0.0 size=N/A time=00:18:26.14 bitrate=N/A speed=14.7x    frame=26700 fps=352 q=-0.0 size=N/A time=00:18:33.61 bitrate=N/A speed=14.7x    frame=26880 fps=352 q=-0.0 size=N/A time=00:18:41.12 bitrate=N/A speed=14.7x    frame=27056 fps=352 q=-0.0 size=N/A time=00:18:48.46 bitrate=N/A speed=14.7x    frame=27232 fps=352 q=-0.0 size=N/A time=00:18:55.80 bitrate=N/A speed=14.7x    frame=27414 fps=352 q=-0.0 size=N/A time=00:19:03.39 bitrate=N/A speed=14.7x    frame=27600 fps=352 q=-0.0 size=N/A time=00:19:11.15 bitrate=N/A speed=14.7x    frame=27779 fps=352 q=-0.0 size=N/A time=00:19:18.61 bitrate=N/A speed=14.7x    frame=27956 fps=352 q=-0.0 size=N/A time=00:19:25.99 bitrate=N/A speed=14.7x    frame=28134 fps=352 q=-0.0 size=N/A time=00:19:33.42 bitrate=N/A speed=14.7x    frame=28324 fps=352 q=-0.0 size=N/A time=00:19:41.34 bitrate=N/A speed=14.7x    frame=28503 fps=352 q=-0.0 size=N/A time=00:19:48.81 bitrate=N/A speed=14.7x    frame=28692 fps=352 q=-0.0 size=N/A time=00:19:56.69 bitrate=N/A speed=14.7x    frame=28854 fps=352 q=-0.0 size=N/A time=00:20:03.45 bitrate=N/A speed=14.7x    frame=29019 fps=351 q=-0.0 size=N/A time=00:20:10.33 bitrate=N/A speed=14.7x    frame=29187 fps=351 q=-0.0 size=N/A time=00:20:17.34 bitrate=N/A speed=14.7x    frame=29364 fps=351 q=-0.0 size=N/A time=00:20:24.72 bitrate=N/A speed=14.7x    frame=29525 fps=351 q=-0.0 size=N/A time=00:20:31.43 bitrate=N/A speed=14.6x    frame=29693 fps=351 q=-0.0 size=N/A time=00:20:38.44 bitrate=N/A speed=14.6x    frame=29853 fps=351 q=-0.0 size=N/A time=00:20:45.11 bitrate=N/A speed=14.6x    frame=30001 fps=350 q=-0.0 size=N/A time=00:20:51.29 bitrate=N/A speed=14.6x    frame=30156 fps=350 q=-0.0 size=N/A time=00:20:57.75 bitrate=N/A speed=14.6x    frame=30342 fps=350 q=-0.0 size=N/A time=00:21:05.51 bitrate=N/A speed=14.6x    frame=30517 fps=350 q=-0.0 size=N/A time=00:21:12.81 bitrate=N/A speed=14.6x    frame=30696 fps=350 q=-0.0 size=N/A time=00:21:20.27 bitrate=N/A speed=14.6x    frame=30878 fps=350 q=-0.0 size=N/A time=00:21:27.86 bitrate=N/A speed=14.6x    frame=31066 fps=350 q=-0.0 size=N/A time=00:21:35.71 bitrate=N/A speed=14.6x    frame=31251 fps=350 q=-0.0 size=N/A time=00:21:43.42 bitrate=N/A speed=14.6x    frame=31433 fps=350 q=-0.0 size=N/A time=00:21:51.01 bitrate=N/A speed=14.6x    frame=31614 fps=350 q=-0.0 size=N/A time=00:21:58.56 bitrate=N/A speed=14.6x    frame=31791 fps=350 q=-0.0 size=N/A time=00:22:05.94 bitrate=N/A speed=14.6x    frame=31942 fps=350 q=-0.0 size=N/A time=00:22:12.24 bitrate=N/A speed=14.6x    frame=32110 fps=350 q=-0.0 size=N/A time=00:22:19.25 bitrate=N/A speed=14.6x    frame=32282 fps=350 q=-0.0 size=N/A time=00:22:26.42 bitrate=N/A speed=14.6x    frame=32462 fps=350 q=-0.0 size=N/A time=00:22:33.93 bitrate=N/A speed=14.6x    frame=32644 fps=350 q=-0.0 size=N/A time=00:22:41.52 bitrate=N/A speed=14.6x    frame=32790 fps=349 q=-0.0 size=N/A time=00:22:47.61 bitrate=N/A speed=14.6x    frame=32955 fps=349 q=-0.0 size=N/A time=00:22:54.49 bitrate=N/A speed=14.6x    frame=33131 fps=349 q=-0.0 size=N/A time=00:23:01.83 bitrate=N/A speed=14.6x    frame=33304 fps=349 q=-0.0 size=N/A time=00:23:09.05 bitrate=N/A speed=14.6x    frame=33470 fps=349 q=-0.0 size=N/A time=00:23:15.97 bitrate=N/A speed=14.5x    frame=33618 fps=348 q=-0.0 size=N/A time=00:23:22.15 bitrate=N/A speed=14.5x    frame=33756 fps=348 q=-0.0 size=N/A time=00:23:27.90 bitrate=N/A speed=14.5x    frame=33874 fps=347 q=-0.0 size=N/A time=00:23:32.82 bitrate=N/A speed=14.5x    frame=34025 fps=347 q=-0.0 size=N/A time=00:23:39.12 bitrate=N/A speed=14.5x    frame=34176 fps=347 q=-0.0 size=N/A time=00:23:45.42 bitrate=N/A speed=14.5x    frame=34315 fps=346 q=-0.0 size=N/A time=00:23:51.22 bitrate=N/A speed=14.4x    frame=34443 fps=346 q=-0.0 size=N/A time=00:23:56.56 bitrate=N/A speed=14.4x    frame=34611 fps=346 q=-0.0 size=N/A time=00:24:03.56 bitrate=N/A speed=14.4x    [Parsed_psnr_16 @ 000001cba40a53c0] PSNR y:49.004474 u:50.361449 v:50.406226 average:49.417409 min:37.995764 max:inf
[out#0/null @ 000001cb9c4efe80] video:14903KiB audio:271276KiB subtitle:0KiB other streams:0KiB global headers:0KiB muxing overhead: unknown
frame=34683 fps=346 q=-0.0 Lsize=N/A time=00:24:06.57 bitrate=N/A speed=14.4x    
